# xmcd
#
# Track frame offsets:
#	150
#	23294
#	45757
#	68336
#	89295
#	107219
#	130638
#	152942
#	177230
#	205519
#	234935
#	262536
#
# Disc length: 3845 seconds
#
# Revision: 1
# Processed by: cddbd v1.5.2PL0 Copyright (c) Steve Scherf et al.
# Submitted via: audiograbber 1.83.01
#
DISCID=7a0f030c
DTITLE=Stefan Waggershausen - Aus der Zeit gefallen
DYEAR=2019
DGENRE=Blues
TTITLE0=Die Drinks sind getrunken
TTITLE1=Ich kenn mich aus mit dem Blues
TTITLE2=Mädchen der besonderen Art
TTITLE3=Hank Williams
TTITLE4=Du bist zu schön für mich
TTITLE5=Etwas Gutes wird kommen
TTITLE6=Sonntagskind
TTITLE7=Du das wär nur heut Nacht
TTITLE8=Backstreet Girl
TTITLE9=Der Rock'n'Roll ruft seine Kinder heim
TTITLE10=New Orleans war gestern (Mein Weg geht da lang)
TTITLE11=Belladonna
EXTD=
EXTT0=
EXTT1=
EXTT2=
EXTT3=
EXTT4=
EXTT5=
EXTT6=
EXTT7=
EXTT8=
EXTT9=
EXTT10=
EXTT11=
PLAYORDER=
